<?xml version="1.0" encoding="utf-8"?>
<!-- Generator: Adobe Illustrator 21.1.0, SVG Export Plug-In . SVG Version: 6.00 Build 0)  -->
<svg version="1.1" id="Capa_1" xmlns="http://www.w3.org/2000/svg" xmlns:xlink="http://www.w3.org/1999/xlink" x="0px" y="0px"
	 viewBox="0 0 335.5 81.5" style="enable-background:new 0 0 335.5 81.5;" xml:space="preserve">
<style type="text/css">
	.st0{fill:#165B95;}
	.st1{fill:url(#SVGID_1_);}
	.st2{fill:#49A9C9;}
	.st3{fill:url(#SVGID_2_);}
	.st4{fill:#213067;}
	.st5{fill:url(#SVGID_3_);}
	.st6{fill:url(#SVGID_4_);}
	.st7{fill:#FFFFFF;}
	.st8{fill:url(#SVGID_5_);}
	.st9{fill:url(#SVGID_6_);}
	.st10{fill:url(#SVGID_7_);}
	.st11{fill:#B2B2B2;}
	.st12{fill:url(#SVGID_8_);}
	.st13{fill:url(#SVGID_9_);}
	.st14{fill:url(#SVGID_10_);}
	.st15{fill:#0094DA;}
	.st16{opacity:0.28;fill:#0094DA;}
	.st17{opacity:0.28;fill:#0090D5;}
	.st18{fill:#F6F6F6;}
</style>
<g>
	<g>
		<path class="st15" d="M22.1,27.9c0,0-7.5,38,5.5,44.4c12.9,6.3,33-0.5,45-9.8s16.5-17.1,15.5-26S69.2,11.1,54.7,7.6
			S26.5,3.8,22.1,27.9z"/>
		<path class="st16" d="M46.2,47.3c6-16.9,1.9-34-9-40.8c-7,1.8-12.6,7.6-15.1,21.4c0,0-6.8,34.6,3.8,43.3
			C34.4,67.3,42.2,58.7,46.2,47.3z"/>
		<path class="st17" d="M86.9,45.8c1.2-3.1,1.5-6.1,1.2-9.4c-1-8.9-18.9-25.4-33.4-28.9c-8.1-2-16-3-22.2,0.9
			C31.4,19.6,38.6,32.7,51.6,41C63.6,48.7,77.2,50.2,86.9,45.8z"/>
		<path class="st17" d="M88,36.5c-0.4-3.7-3.7-8.6-8.5-13.4c-3.9,3.4-7.2,8.2-9.2,13.9c-3.4,9.6-2.5,19.4,1.8,25.8
			c0.1-0.1,0.3-0.2,0.4-0.3C84.6,53.1,89.1,45.4,88,36.5z"/>
		<path class="st17" d="M55.8,71.5c-4.8-5.3-13.1-8.8-22.4-8.8c-4.2,0-8.1,0.7-11.6,1.9c1.2,3.5,3,6.3,5.7,7.6
			C35.5,76.1,46.1,75.1,55.8,71.5z"/>
	</g>
	<path class="st18" d="M67.2,35h-9.8v-9.8c0-1.5-1.2-2.7-2.7-2.7h-8c-1.5,0-2.7,1.2-2.7,2.7V35h-9.8c-1.5,0-2.7,1.2-2.7,2.7v8
		c0,1.5,1.2,2.7,2.7,2.7h9.8v9.8c0,1.5,1.2,2.7,2.7,2.7h8c1.5,0,2.7-1.2,2.7-2.7v-9.8h9.8c1.5,0,2.7-1.2,2.7-2.7v-8
		C69.9,36.2,68.7,35,67.2,35z"/>
</g>
<g>
	<g>
		<g>
			<g>
				<path class="st7" d="M128,12.7v35.9h-7.2l-6-13.9l-3.2-8.8l-0.2,0.2c0.6,4.5,0.9,11.2,0.9,15.2v7.3h-7.2V12.7h7.2l6.8,15.6
					c0.9,2.3,1.7,4.6,2.6,6.9l0.2-0.2c-0.6-4.5-1-10.7-1-14v-8.3H128z"/>
				<path class="st7" d="M133.2,38.4v-6.9c0-6.9,3.7-10.8,10.1-10.8c6.4,0,10.1,3.8,10.1,10.8v6.9c0,6.9-3.7,10.8-10.1,10.8
					C136.9,49.2,133.2,45.3,133.2,38.4z M146.2,38.4v-6.9c0-2.8-1-4-3-4c-1.9,0-3,1.2-3,4v6.9c0,2.8,1,4,3,4
					C145.2,42.5,146.2,41.2,146.2,38.4z"/>
				<path class="st7" d="M156.2,39.9h7c0.1,1.3,0.8,3.1,3.3,3.1c1.8,0,2.9-0.9,2.9-2.2c0-4.3-12.8-3-12.8-12.2c0-5,3.6-7.9,9.4-7.9
					c6.5,0,9.2,3.9,9.6,9h-6.7c-0.2-1.7-0.9-2.9-2.9-2.9c-1.5,0-2.5,0.7-2.5,1.7c0,3.8,12.8,2.3,12.8,12.1c0,5.1-3.5,8.6-9.6,8.6
					C159.7,49.3,156.4,44.7,156.2,39.9z"/>
				<path class="st7" d="M179.4,38.4v-6.9c0-6.9,3.7-10.8,10.1-10.8c6.4,0,10.1,3.8,10.1,10.8v6.9c0,6.9-3.7,10.8-10.1,10.8
					C183.1,49.2,179.4,45.3,179.4,38.4z M192.4,38.4v-6.9c0-2.8-1-4-3-4c-1.9,0-3,1.2-3,4v6.9c0,2.8,1,4,3,4
					C191.4,42.5,192.4,41.2,192.4,38.4z"/>
				<path class="st7" d="M203.4,39v-8.1c0-6.4,3.6-10.1,9.7-10.1c6.4,0,9.7,3.8,9.9,10.1h-7c-0.1-2.3-1-3.5-2.7-3.5
					c-1.8,0-2.8,1.2-2.8,3.5V39c0,2.3,1,3.5,2.8,3.5c1.9,0,2.8-1.2,2.9-3.5h7c-0.2,6.4-3.9,10.2-10.1,10.2
					C207,49.2,203.4,45.4,203.4,39z"/>
				<path class="st7" d="M226.1,38.4v-6.9c0-6.9,3.7-10.8,10.1-10.8c6.4,0,10.1,3.8,10.1,10.8v6.9c0,6.9-3.7,10.8-10.1,10.8
					C229.8,49.2,226.1,45.3,226.1,38.4z M239.2,38.4v-6.9c0-2.8-1-4-3-4c-1.9,0-3,1.2-3,4v6.9c0,2.8,1,4,3,4
					C238.1,42.5,239.2,41.2,239.2,38.4z"/>
				<path class="st7" d="M282.2,31.9v16.7h-6.9V31.9c0-3.3-0.9-4.5-2.5-4.5c-1.7,0-2.8,1.3-2.8,4v17.2H263V31.9
					c0-3.3-0.9-4.5-2.5-4.5c-1.7,0-2.8,1.3-2.8,4v17.2h-6.9V21.4h4.6l0.5,2.8c1.4-2.3,3.5-3.4,6.4-3.4c2.7,0,4.7,1.1,6,3.2
					c1.3-2.1,3.5-3.2,6.2-3.2C279.3,20.7,282.2,24.5,282.2,31.9z"/>
				<path class="st7" d="M286.8,13.6c0-2.2,1.6-3.8,3.8-3.8c2.2,0,3.8,1.6,3.8,3.8c0,2-1.7,3.8-3.8,3.8
					C288.3,17.4,286.8,15.7,286.8,13.6z M287.1,21.4h7v27.2h-7V21.4z"/>
				<path class="st7" d="M298.6,38.4v-6.9c0-6.9,3.7-10.8,10.1-10.8c6.4,0,10.1,3.8,10.1,10.8v6.9c0,6.9-3.7,10.8-10.1,10.8
					C302.3,49.2,298.6,45.3,298.6,38.4z M311.7,38.4v-6.9c0-2.8-1-4-3-4c-1.9,0-3,1.2-3,4v6.9c0,2.8,1,4,3,4
					C310.6,42.5,311.7,41.2,311.7,38.4z"/>
			</g>
		</g>
	</g>
	<path class="st15" d="M311.4,76.3H112.5c-5,0-9-4.1-9-9v-4.5c0-5,4.1-9,9-9h198.9c5,0,9,4.1,9,9v4.5
		C320.5,72.2,316.4,76.3,311.4,76.3z"/>
	<g>
		<path class="st7" d="M122.1,58.8v12.4h-2.5v-5H117v5h-2.5V58.8h2.5v5h2.6v-5H122.1z"/>
		<path class="st7" d="M123.9,67.7v-2.4c0-2.4,1.3-3.7,3.5-3.7c2.2,0,3.5,1.3,3.5,3.7v2.4c0,2.4-1.3,3.7-3.5,3.7
			C125.2,71.4,123.9,70.1,123.9,67.7z M128.4,67.7v-2.4c0-1-0.4-1.4-1-1.4c-0.7,0-1,0.4-1,1.4v2.4c0,1,0.4,1.4,1,1.4
			C128,69.1,128.4,68.7,128.4,67.7z"/>
		<path class="st7" d="M131.8,68.2h2.4c0,0.5,0.3,1.1,1.2,1.1c0.6,0,1-0.3,1-0.7c0-1.5-4.4-1-4.4-4.2c0-1.7,1.3-2.7,3.2-2.7
			c2.2,0,3.2,1.3,3.3,3.1h-2.3c-0.1-0.6-0.3-1-1-1c-0.5,0-0.9,0.2-0.9,0.6c0,1.3,4.4,0.8,4.4,4.2c0,1.8-1.2,3-3.3,3
			C133,71.5,131.9,69.9,131.8,68.2z"/>
		<path class="st7" d="M146.9,65.3v2.4c0,2.2-1.2,3.7-3,3.7c-0.5,0-1-0.2-1.4-0.5v3.5h-2.4V61.8h1.6l0.1,0.8c0.5-0.5,1.3-1,2-1
			C145.7,61.6,146.9,63.1,146.9,65.3z M144.4,65.3c0-0.9-0.3-1.4-0.9-1.4c-0.7,0-1.1,0.5-1.1,1.4v2.4c0,0.9,0.4,1.4,1.1,1.4
			c0.6,0,0.9-0.5,0.9-1.4V65.3z"/>
		<path class="st7" d="M148.3,59.1c0-0.8,0.5-1.3,1.3-1.3c0.7,0,1.3,0.6,1.3,1.3c0,0.7-0.6,1.3-1.3,1.3
			C148.9,60.4,148.3,59.9,148.3,59.1z M148.4,61.8h2.4v9.4h-2.4V61.8z"/>
		<path class="st7" d="M157.2,69.1v2.3h-0.8c-2,0-3.3-1.3-3.3-3.4V64h-1.2v-2.2h1.2v-2.3h2.4v2.3h1.5V64h-1.5v4
			c0,0.8,0.3,1.1,1.1,1.1H157.2z"/>
		<path class="st7" d="M165,65.2v6h-1.9l-0.1-0.9c-0.3,0.6-1,1.1-2,1.1c-1.7,0-2.8-1.2-2.8-2.9c0-2,1.5-3,3.6-3h0.9v-0.3
			c0-0.8-0.2-1.3-0.8-1.3c-0.4,0-0.9,0.2-0.9,0.8h-2.4c0.1-2,1.3-3.2,3.4-3.2C164,61.6,165,62.8,165,65.2z M162.6,67.6h-0.8
			c-0.7,0-1.2,0.3-1.2,1c0,0.5,0.2,0.9,0.9,0.9c0.7,0,1.1-0.4,1.1-1.2V67.6z"/>
		<path class="st7" d="M166.6,58.4h2.4v12.8h-2.4V58.4z"/>
		<path class="st7" d="M177.8,67H177v4.2h-2.5V58.8h3.6c2.5,0,3.9,1.5,3.9,4.1c0,1.7-0.6,2.9-1.7,3.6l2.3,4.7h-2.7L177.8,67z
			 M177,64.7h1c0.9,0,1.4-0.6,1.4-1.7c0-1.1-0.5-1.7-1.4-1.7h-1V64.7z"/>
		<path class="st7" d="M190.3,68.2c-0.2,2-1.5,3.2-3.6,3.2c-2.1,0-3.4-1.4-3.4-3.7v-2.5c0-2.3,1.3-3.6,3.4-3.6
			c2.2,0,3.4,1.3,3.4,3.6v2.1h-4.4v0.4c0,1,0.3,1.4,1,1.4c0.7,0,0.9-0.3,1.1-0.9H190.3z M185.8,65.2v0.5h2v-0.5c0-1-0.4-1.4-1-1.4
			C186.1,63.8,185.8,64.2,185.8,65.2z"/>
		<path class="st7" d="M198.3,61.8v9.7c0,1.9-1.2,3.1-3.3,3.1c-2.1,0-3.2-1.2-3.3-3.1h2.4c0.1,0.5,0.3,0.9,0.9,0.9
			c0.5,0,0.9-0.4,0.9-0.9v-1.2c-0.4,0.2-0.9,0.4-1.4,0.4c-1.7,0-3-1.5-3-3.5v-2.1c0-2.1,1.3-3.5,3-3.5c0.8,0,1.5,0.3,2.1,0.8
			l0.2-0.5H198.3z M195.9,67.2v-2.1c0-0.8-0.4-1.2-1-1.2c-0.6,0-1,0.4-1,1.2v2.1c0,0.8,0.3,1.2,1,1.2
			C195.5,68.4,195.9,68,195.9,67.2z"/>
		<path class="st7" d="M200,59.1c0-0.8,0.5-1.3,1.3-1.3c0.7,0,1.3,0.6,1.3,1.3c0,0.7-0.6,1.3-1.3,1.3C200.6,60.4,200,59.9,200,59.1z
			 M200.1,61.8h2.4v9.4h-2.4V61.8z"/>
		<path class="st7" d="M204.1,67.7v-2.4c0-2.4,1.3-3.7,3.5-3.7c2.2,0,3.5,1.3,3.5,3.7v2.4c0,2.4-1.3,3.7-3.5,3.7
			C205.4,71.4,204.1,70.1,204.1,67.7z M208.6,67.7v-2.4c0-1-0.4-1.4-1-1.4s-1,0.4-1,1.4v2.4c0,1,0.4,1.4,1,1.4
			S208.6,68.7,208.6,67.7z"/>
		<path class="st7" d="M219.4,65.5v5.8H217v-5.8c0-1.2-0.3-1.6-0.9-1.6c-0.6,0-1,0.5-1,1.4v5.9h-2.4v-9.4h1.6l0.2,1
			c0.5-0.8,1.2-1.2,2.2-1.2C218.4,61.6,219.4,62.9,219.4,65.5z"/>
		<path class="st7" d="M227.5,65.2v6h-1.9l-0.1-0.9c-0.3,0.6-1,1.1-2,1.1c-1.7,0-2.8-1.2-2.8-2.9c0-2,1.5-3,3.6-3h0.9v-0.3
			c0-0.8-0.2-1.3-0.8-1.3c-0.4,0-0.9,0.2-0.9,0.8h-2.4c0.1-2,1.3-3.2,3.4-3.2C226.5,61.6,227.5,62.8,227.5,65.2z M225.1,67.6h-0.8
			c-0.7,0-1.2,0.3-1.2,1c0,0.5,0.2,0.9,0.9,0.9c0.7,0,1.1-0.4,1.1-1.2V67.6z"/>
		<path class="st7" d="M229.1,58.4h2.4v12.8h-2.4V58.4z"/>
		<path class="st7" d="M243.3,58.4v12.9h-1.6l-0.1-0.8c-0.5,0.5-1.3,1-2,1c-1.8,0-3-1.5-3-3.7v-2.4c0-2.2,1.2-3.7,3-3.7
			c0.5,0,1,0.2,1.4,0.5v-3.7H243.3z M241,65.3c0-0.9-0.4-1.4-1.1-1.4c-0.6,0-0.9,0.5-0.9,1.4v2.4c0,0.9,0.3,1.4,0.9,1.4
			c0.7,0,1.1-0.5,1.1-1.4V65.3z"/>
		<path class="st7" d="M251.8,68.2c-0.2,2-1.5,3.2-3.6,3.2c-2.1,0-3.4-1.4-3.4-3.7v-2.5c0-2.3,1.3-3.6,3.4-3.6
			c2.2,0,3.4,1.3,3.4,3.6v2.1h-4.4v0.4c0,1,0.3,1.4,1,1.4c0.7,0,0.9-0.3,1.1-0.9H251.8z M247.3,65.2v0.5h2v-0.5c0-1-0.4-1.4-1-1.4
			C247.7,63.8,247.3,64.2,247.3,65.2z"/>
		<path class="st7" d="M263.6,61.2h-2.4v10h-2.6v-10h-2.4v-2.4h7.4V61.2z"/>
		<path class="st7" d="M270.4,68.2c-0.2,2-1.5,3.2-3.6,3.2c-2.1,0-3.4-1.4-3.4-3.7v-2.5c0-2.3,1.3-3.6,3.4-3.6
			c2.2,0,3.4,1.3,3.4,3.6v2.1h-4.4v0.4c0,1,0.3,1.4,1,1.4c0.7,0,0.9-0.3,1.1-0.9H270.4z M265.9,65.2v0.5h2v-0.5c0-1-0.4-1.4-1-1.4
			C266.2,63.8,265.9,64.2,265.9,65.2z"/>
		<path class="st7" d="M276.3,69.1v2.3h-0.8c-2,0-3.3-1.3-3.3-3.4V64H271v-2.2h1.2v-2.3h2.4v2.3h1.5V64h-1.5v4
			c0,0.8,0.3,1.1,1.1,1.1H276.3z"/>
		<path class="st7" d="M284.4,68.2c-0.2,2-1.5,3.2-3.6,3.2c-2.1,0-3.4-1.4-3.4-3.7v-2.5c0-2.3,1.3-3.6,3.4-3.6
			c2.2,0,3.4,1.3,3.4,3.6v2.1h-4.4v0.4c0,1,0.3,1.4,1,1.4c0.7,0,0.9-0.3,1.1-0.9H284.4z M279.9,65.2v0.5h2v-0.5c0-1-0.4-1.4-1-1.4
			C280.3,63.8,279.9,64.2,279.9,65.2z"/>
		<path class="st7" d="M292.6,65.5v5.8h-2.4v-5.8c0-1.2-0.3-1.6-0.9-1.6c-0.6,0-1,0.5-1,1.4v5.9h-2.4v-9.4h1.6l0.2,1
			c0.5-0.8,1.2-1.2,2.2-1.2C291.6,61.6,292.6,62.9,292.6,65.5z"/>
		<path class="st7" d="M300.9,61.8v9.7c0,1.9-1.2,3.1-3.3,3.1c-2.1,0-3.2-1.2-3.3-3.1h2.4c0.1,0.5,0.3,0.9,0.9,0.9
			c0.5,0,0.9-0.4,0.9-0.9v-1.2c-0.4,0.2-0.9,0.4-1.4,0.4c-1.7,0-3-1.5-3-3.5v-2.1c0-2.1,1.3-3.5,3-3.5c0.8,0,1.5,0.3,2.1,0.8
			l0.2-0.5H300.9z M298.5,67.2v-2.1c0-0.8-0.4-1.2-1-1.2c-0.6,0-1,0.4-1,1.2v2.1c0,0.8,0.3,1.2,1,1.2
			C298.1,68.4,298.5,68,298.5,67.2z"/>
		<path class="st7" d="M302.5,67.7v-2.4c0-2.4,1.3-3.7,3.5-3.7c2.2,0,3.5,1.3,3.5,3.7v2.4c0,2.4-1.3,3.7-3.5,3.7
			C303.8,71.4,302.5,70.1,302.5,67.7z M307,67.7v-2.4c0-1-0.4-1.4-1-1.4s-1,0.4-1,1.4v2.4c0,1,0.4,1.4,1,1.4S307,68.7,307,67.7z"/>
	</g>
</g>
</svg>
